<?xml version="1.0" encoding="UTF-8" standalone="no"?>
<!-- Created with Inkscape (http://www.inkscape.org/) -->

<svg
   width="16"
   height="16"
   viewBox="0 0 4.2333333 4.2333333"
   version="1.1"
   id="svg1"
   sodipodi:docname="icon.svg"
   inkscape:version="1.3 (0e150ed6c4, 2023-07-21)"
   inkscape:export-filename="icon_64.png"
   inkscape:export-xdpi="384"
   inkscape:export-ydpi="384"
   xmlns:inkscape="http://www.inkscape.org/namespaces/inkscape"
   xmlns:sodipodi="http://sodipodi.sourceforge.net/DTD/sodipodi-0.dtd"
   xmlns="http://www.w3.org/2000/svg"
   xmlns:svg="http://www.w3.org/2000/svg">
  <sodipodi:namedview
     id="namedview1"
     pagecolor="#ffffff"
     bordercolor="#000000"
     borderopacity="0.25"
     inkscape:showpageshadow="2"
     inkscape:pageopacity="0.0"
     inkscape:pagecheckerboard="0"
     inkscape:deskcolor="#d1d1d1"
     inkscape:document-units="mm"
     inkscape:zoom="26.90625"
     inkscape:cx="9.6074332"
     inkscape:cy="9.495935"
     inkscape:window-width="1920"
     inkscape:window-height="1017"
     inkscape:window-x="-8"
     inkscape:window-y="-8"
     inkscape:window-maximized="1"
     inkscape:current-layer="layer1" />
  <defs
     id="defs1" />
  <g
     inkscape:label="Layer 1"
     inkscape:groupmode="layer"
     id="layer1">
    <text
       xml:space="preserve"
       style="font-style:normal;font-variant:normal;font-weight:normal;font-stretch:normal;font-size:8.46667px;font-family:Tahoma;-inkscape-font-specification:Tahoma;fill:#000000;stroke:none;stroke-width:7.9375"
       x="12.661388"
       y="34.004871"
       id="text1"><tspan
         sodipodi:role="line"
         id="tspan1"
         style="font-style:normal;font-variant:normal;font-weight:normal;font-stretch:normal;font-family:Tahoma;-inkscape-font-specification:Tahoma;fill:#000000;stroke:none;stroke-width:7.9375"
         x="12.661388"
         y="34.004871" /></text>
    <path
       id="rect1-9"
       style="fill:#666666;stroke:none;stroke-width:0.345707"
       d="M 1.5875,0.26458333 V 2.38125 A 0.79375,0.79374999 0 0 0 2.1166666,3.1279744 V 3.96875 H 2.6458334 V 3.1295247 A 0.79375,0.79374999 0 0 0 3.1750001,2.38125 V 0.26458333 H 2.6458334 V 2.38125 A 0.26458332,0.26458332 0 0 1 2.3812501,2.6458333 0.26458332,0.26458332 0 0 1 2.1166666,2.38125 V 0.26458333 Z" />
    <path
       style="fill:none;stroke:#00ffff;stroke-width:0.264583;stroke-dasharray:none"
       d="m 0.38009294,1.9021526 c 0,0 0.89485096,-1.60286486 1.86837006,0 0.9735192,1.6028649 1.8585367,-0.019667 1.8585367,-0.019667"
       id="path4-4" />
    <path
       id="rect1-94"
       style="fill:#999999;stroke:none;stroke-width:0.345707"
       d="M 1.3229167,0.26458333 V 2.38125 A 0.79375,0.79374999 0 0 0 1.8520833,3.1279744 V 3.96875 H 2.3812501 V 3.1295247 A 0.79375,0.79374999 0 0 0 2.9104168,2.38125 V 0.26458333 H 2.3812501 V 2.38125 A 0.26458332,0.26458332 0 0 1 2.1166667,2.6458333 0.26458332,0.26458332 0 0 1 1.8520833,2.38125 V 0.26458333 Z" />
    <path
       style="fill:none;stroke:#0000ff;stroke-width:0.264583;stroke-dasharray:none"
       d="m 0.11550961,1.9021526 c 0,0 0.89485099,-1.60286485 1.86837009,0 0.9735192,1.6028649 1.8585367,-0.019667 1.8585367,-0.019667"
       id="path4" />
    <path
       id="rect1"
       style="fill:#e6e6e6;stroke:none;stroke-width:0.345707"
       d="M 1.0583333,0.26458333 V 2.38125 A 0.79375,0.79374999 0 0 0 1.5874999,3.1279744 V 3.96875 H 2.1166667 V 3.1295247 A 0.79375,0.79374999 0 0 0 2.6458334,2.38125 V 0.26458333 H 2.1166667 V 2.38125 A 0.26458332,0.26458332 0 0 1 1.8520833,2.6458333 0.26458332,0.26458332 0 0 1 1.5874999,2.38125 V 0.26458333 Z" />
  </g>
</svg>
